# xmcd
#
# Track frame offsets: 
#        150
#        18038
#        35342
#        51177
#        74333
#        91732
#        112612
#        133037
#        147851
#        165024
#        184487
#        206348
#        227173
#        244672
#        263742
#
# Disc length: 3743 seconds
#
# Revision: 0
# Processed by: cddbd v1.5.2PL0 Copyright (c) Steve Scherf et al.
# Submitted via: ExactAudioCopy v0.99pb4
#
DISCID=ba0e9d0f
DTITLE=Reverend Ernie Cox - One More Time
DYEAR=2010
DGENRE=Gospel
TTITLE0=Ain't That Love
TTITLE1=I Cried Last Night
TTITLE2=Long Gone Lonesome Blues
TTITLE3=Georgia
TTITLE4=Who Will The Next Fool Be?
TTITLE5=Just For A Thrill
TTITLE6=You Don't Know Me
TTITLE7=Hallelujah, I Love Her So
TTITLE8=Trouble In Mind
TTITLE9=You Can't Make Me Doubt Him
TTITLE10=Walk In The Light
TTITLE11=New Jerusalem
TTITLE12=Lucky Old Sun
TTITLE13=This Little Light Of Mine
TTITLE14=(There Is Always) One More Time
EXTD=
EXTT0=
EXTT1=
EXTT2=
EXTT3=
EXTT4=
EXTT5=
EXTT6=
EXTT7=
EXTT8=
EXTT9=
EXTT10=
EXTT11=
EXTT12=
EXTT13=
EXTT14=
PLAYORDER=
